<svg height="512pt" viewBox="-49 0 511 512" width="512pt" xmlns="http://www.w3.org/2000/svg"><path d="m406.65625 102.292969-96.230469-96.421875c-3.75-3.757813-8.84375-5.871094-14.15625-5.871094h-275.769531c-11.046875 0-20 8.953125-20 20v472c0 11.046875 8.953125 20 20 20h372c11.046875 0 20-8.953125 20-20v-375.578125c0-5.300781-2.101562-10.382813-5.84375-14.128906zm-34.15625 369.707031h-332v-432h247.472656l84.527344 84.691406zm-182.71875-324.140625-73.082031 111.285156c-3.855469 5.867188-4.347657 13.328125-1.300781 19.65625l26.175781 54.359375h-13.414063c-11.046875 0-20 8.953125-20 20s8.953125 20 20 20h156.679688c11.046875 0 20-8.953125 20-20s-8.953125-20-20-20h-13.414063l26.175781-54.359375c3.046876-6.328125 2.554688-13.789062-1.300781-19.65625l-73.082031-111.285156c-7.886719-12.007813-25.539062-12.023437-33.4375 0zm37.246094 185.300781h-41.054688l-29.625-61.519531 50.152344-76.367187 50.152344 76.367187zm0 0"/></svg>